<svg width="14" height="14" viewBox="0 0 14 14" fill="none" xmlns="http://www.w3.org/2000/svg">
<path d="M9.33333 0.333375C9.67723 0.333338 10.0169 0.409321 10.328 0.555884C10.6391 0.702448 10.914 0.915968 11.1329 1.18117C11.3519 1.44636 11.5095 1.75668 11.5945 2.08991C11.6795 2.42313 11.6898 2.77103 11.6247 3.10871L11.6147 3.15271C12.1947 3.34618 12.7017 3.71217 13.068 4.2017C13.4343 4.69124 13.6424 5.28097 13.6643 5.89198C13.6863 6.503 13.5211 7.10614 13.1909 7.62072C12.8607 8.1353 12.3813 8.53675 11.8167 8.77137L11.0927 13.1094C11.0668 13.265 10.9865 13.4065 10.8662 13.5085C10.7458 13.6106 10.5931 13.6666 10.4353 13.6667H3.56466C3.40686 13.6666 3.2542 13.6106 3.13383 13.5085C3.01347 13.4065 2.93321 13.265 2.90733 13.1094L2.22133 8.99604C1.75995 8.96987 1.32186 8.78473 0.981547 8.47209C0.64123 8.15945 0.41968 7.73861 0.354557 7.28109C0.289434 6.82358 0.384756 6.35763 0.624321 5.96245C0.863885 5.56727 1.23291 5.26725 1.66866 5.11337L1.66666 5.00004C1.66653 4.32501 1.83723 3.66093 2.16287 3.06964C2.48851 2.47835 2.95849 1.97908 3.52904 1.61834C4.0996 1.25761 4.75217 1.04713 5.42597 1.00651C6.09978 0.965889 6.77291 1.09645 7.38266 1.38604C7.59486 1.06243 7.88429 0.796748 8.22485 0.61297C8.5654 0.429192 8.94635 0.333103 9.33333 0.333375ZM5 9.00004H3.57333L4.12933 12.3334H5V9.00004ZM7.66666 9.00004H6.33333V12.3334H7.66666V9.00004ZM10.426 9.00004H9V12.3334H9.87L10.426 9.00004ZM5.66666 2.33337C4.23866 2.33337 3.07266 3.45604 3.00333 4.84471L3 4.97604L3.002 5.08937C3.00671 5.35116 2.93424 5.60854 2.79364 5.8294C2.65303 6.05027 2.45051 6.22485 2.21133 6.33137L2.11133 6.37071C1.9633 6.42342 1.83862 6.52667 1.75924 6.66228C1.67987 6.7979 1.6509 6.95717 1.67743 7.11205C1.70396 7.26693 1.78429 7.40747 1.90427 7.50894C2.02426 7.6104 2.1762 7.66627 2.33333 7.66671H10.6667C10.9131 7.66671 11.1564 7.61206 11.3792 7.50671C11.602 7.40136 11.7986 7.24793 11.9549 7.05746C12.1113 6.86699 12.2234 6.64422 12.2833 6.40519C12.3432 6.16617 12.3494 5.91683 12.3013 5.67514C12.2533 5.43345 12.1523 5.20542 12.0055 5.00747C11.8588 4.80952 11.6699 4.64657 11.4527 4.53036C11.2354 4.41415 10.995 4.34756 10.7489 4.3354C10.5028 4.32325 10.257 4.36581 10.0293 4.46004L9.91266 4.51404C9.60504 4.67256 9.24784 4.70526 8.91655 4.60524C8.58526 4.50521 8.30583 4.28031 8.13733 3.97804L8.09066 3.88671C7.8776 3.42299 7.53596 3.03015 7.1063 2.75481C6.67663 2.47948 6.17698 2.33321 5.66666 2.33337ZM9.33333 1.66671C9.16051 1.66667 8.99063 1.71142 8.84026 1.7966C8.68989 1.88177 8.56416 2.00447 8.47533 2.15271C8.81957 2.49163 9.09964 2.89005 9.302 3.32871C9.598 3.17671 9.922 3.07271 10.266 3.02671C10.3244 2.87523 10.3451 2.71181 10.3263 2.55054C10.3074 2.38928 10.2496 2.23504 10.1577 2.10114C10.0659 1.96724 9.94287 1.85771 9.79924 1.78202C9.6556 1.70633 9.49569 1.66675 9.33333 1.66671Z" fill="black"/>
</svg>
