<svg width="9" height="13" viewBox="0 0 9 13" fill="none" xmlns="http://www.w3.org/2000/svg">
<path d="M1.10747 7.18036L6.53163 12.5949C6.62072 12.6848 6.72672 12.7561 6.8435 12.8047C6.96028 12.8534 7.08554 12.8784 7.21205 12.8784C7.33856 12.8784 7.46382 12.8534 7.5806 12.8047C7.69738 12.7561 7.80338 12.6848 7.89247 12.5949C8.07096 12.4154 8.17114 12.1725 8.17114 11.9193C8.17114 11.6661 8.07096 11.4232 7.89247 11.2437L3.14872 6.45203L7.89247 1.70828C8.07096 1.52872 8.17114 1.28583 8.17114 1.03265C8.17114 0.779475 8.07096 0.536584 7.89247 0.357028C7.80371 0.266477 7.69787 0.194438 7.58107 0.145087C7.46427 0.0957364 7.33885 0.0700549 7.21205 0.0695285C7.08526 0.0700549 6.95983 0.0957364 6.84303 0.145087C6.72623 0.194438 6.62039 0.266476 6.53163 0.357028L1.10747 5.77161C1.01019 5.86135 0.932558 5.97027 0.879459 6.0915C0.826361 6.21272 0.798948 6.34364 0.798948 6.47599C0.798948 6.60833 0.826361 6.73925 0.879459 6.86047C0.932558 6.9817 1.01019 7.09062 1.10747 7.18036Z" fill="black"/>
</svg>
