<svg width="490" height="858" viewBox="0 0 490 858" fill="none" xmlns="http://www.w3.org/2000/svg">
<path opacity="0.07" d="M420.292 472.444C375.884 430.08 351.427 377.502 351.427 324.4V306.761C351.427 220.629 290.968 146.526 212.227 133.575C213.129 118.441 217.801 103.753 226.537 90.9466C239.306 72.2197 259.037 59.6061 282.093 55.4166C297.069 52.6902 307.033 38.1879 304.351 23.0137C301.66 7.83949 287.266 -2.32916 272.372 0.461017C234.76 7.29486 202.385 28.1584 181.211 59.2073C165.886 81.6661 157.638 107.55 156.835 134.183C126.647 139.712 98.2646 153.462 75.2444 174.583C40.6638 206.287 20.8257 251.567 20.8257 298.801V324.398C20.8257 377.511 -3.63 430.088 -48.0396 472.452C-192.761 610.526 -94.1311 857.046 103.458 857.046C131.421 857.046 159.229 851.412 186.126 840.189C408.678 933.049 596.673 640.754 420.292 472.444ZM103.506 745.442C5.58039 745.442 -45.1717 623.066 27.5288 553.709C38.6031 543.123 56.0563 543.668 66.4674 554.89C76.9066 566.111 76.3773 583.778 65.3014 594.345C29.0619 628.952 55.0971 689.612 103.506 689.612C118.725 689.612 131.056 702.106 131.056 717.527C131.056 732.947 118.725 745.442 103.506 745.442Z" fill="#FFBC01"/>
</svg>
