<svg width="9" height="13" viewBox="0 0 9 13" fill="none" xmlns="http://www.w3.org/2000/svg">
<path d="M7.89253 5.81964L2.46837 0.405055C2.37928 0.315232 2.27328 0.243938 2.1565 0.195285C2.03972 0.146631 1.91446 0.121582 1.78795 0.121582C1.66144 0.121582 1.53618 0.146631 1.4194 0.195285C1.30262 0.243938 1.19662 0.315232 1.10753 0.405055C0.929043 0.584611 0.828857 0.827502 0.828857 1.08068C0.828857 1.33386 0.929043 1.57675 1.10753 1.75631L5.85128 6.54797L1.10753 11.2917C0.929043 11.4713 0.828857 11.7142 0.828857 11.9673C0.828857 12.2205 0.929043 12.4634 1.10753 12.643C1.19629 12.7335 1.30213 12.8056 1.41893 12.8549C1.53573 12.9043 1.66116 12.9299 1.78795 12.9305C1.91474 12.9299 2.04017 12.9043 2.15697 12.8549C2.27377 12.8056 2.37961 12.7335 2.46837 12.643L7.89253 7.22839C7.98981 7.13865 8.06744 7.02973 8.12054 6.9085C8.17364 6.78728 8.20105 6.65636 8.20105 6.52401C8.20105 6.39167 8.17364 6.26075 8.12054 6.13952C8.06744 6.0183 7.98981 5.90938 7.89253 5.81964V5.81964Z" fill="black"/>
</svg>
