<svg width="16" height="16" viewBox="0 0 16 16" fill="none" xmlns="http://www.w3.org/2000/svg">
<path d="M10.9501 9.40098C12.7867 6.85839 12.1725 3.33767 9.57902 1.53751C6.98558 -0.262641 3.39443 0.33913 1.55827 2.88214C-0.277896 5.42472 0.335912 8.94502 2.92979 10.7452C4.78087 12.03 7.22821 12.129 9.18064 10.9985L13.4229 15.1326C13.8809 15.6054 14.6431 15.6243 15.1252 15.1752C15.6074 14.7266 15.6267 13.9794 15.1691 13.5067C15.1546 13.4916 15.1406 13.4779 15.1252 13.4637L10.9501 9.40098ZM6.25068 9.78639C4.20128 9.78682 2.53975 8.15915 2.53843 6.14995C2.53799 4.14074 4.19821 2.51179 6.24805 2.51093C8.29481 2.51007 9.95547 4.13515 9.95942 6.14177C9.96293 8.15141 8.30358 9.78294 6.25331 9.78639C6.25243 9.78639 6.25199 9.78639 6.25068 9.78639Z" fill="#DADADA"/>
</svg>
